<mxfile host="app.diagrams.net" modified="2023-02-27T11:14:12.738Z" agent="5.0 (Windows NT 10.0; Win64; x64) AppleWebKit/537.36 (KHTML, like Gecko) Chrome/110.0.0.0 Safari/537.36" etag="jC7vr3OHcFAdajtBvOl-" version="20.8.20" type="github">
  <diagram name="Страница 1" id="7bM2gY0bvZfQtvgrsMsv">
    <mxGraphModel dx="743" dy="461" grid="0" gridSize="10" guides="1" tooltips="1" connect="1" arrows="1" fold="1" page="1" pageScale="1" pageWidth="827" pageHeight="1169" math="0" shadow="0">
      <root>
        <mxCell id="0" />
        <mxCell id="1" parent="0" />
        <mxCell id="gx-YbFX0xYSTEnHTqpCu-1" value="Пользователь" style="rounded=1;whiteSpace=wrap;html=1;" vertex="1" parent="1">
          <mxGeometry x="318" y="84" width="120" height="60" as="geometry" />
        </mxCell>
        <mxCell id="gx-YbFX0xYSTEnHTqpCu-2" value="Результат анализа" style="rounded=1;whiteSpace=wrap;html=1;" vertex="1" parent="1">
          <mxGeometry x="447" y="180" width="120" height="60" as="geometry" />
        </mxCell>
        <mxCell id="gx-YbFX0xYSTEnHTqpCu-3" value="Исх. опис. объекта" style="rounded=1;whiteSpace=wrap;html=1;" vertex="1" parent="1">
          <mxGeometry x="195" y="180" width="120" height="60" as="geometry" />
        </mxCell>
        <mxCell id="gx-YbFX0xYSTEnHTqpCu-4" value="Формирование модели обьекта" style="rounded=1;whiteSpace=wrap;html=1;" vertex="1" parent="1">
          <mxGeometry x="195" y="280" width="120" height="60" as="geometry" />
        </mxCell>
        <mxCell id="gx-YbFX0xYSTEnHTqpCu-5" value="Решение уравнений модели" style="rounded=1;whiteSpace=wrap;html=1;" vertex="1" parent="1">
          <mxGeometry x="447" y="286" width="120" height="60" as="geometry" />
        </mxCell>
        <mxCell id="gx-YbFX0xYSTEnHTqpCu-6" value="Библиотека компонентов модели" style="rounded=1;whiteSpace=wrap;html=1;" vertex="1" parent="1">
          <mxGeometry x="195" y="372" width="120" height="60" as="geometry" />
        </mxCell>
        <mxCell id="gx-YbFX0xYSTEnHTqpCu-7" value="Разработчик модели" style="rounded=1;whiteSpace=wrap;html=1;" vertex="1" parent="1">
          <mxGeometry x="456" y="372" width="120" height="60" as="geometry" />
        </mxCell>
        <mxCell id="gx-YbFX0xYSTEnHTqpCu-8" value="" style="endArrow=classic;html=1;rounded=0;entryX=0.5;entryY=1;entryDx=0;entryDy=0;exitX=0.5;exitY=0;exitDx=0;exitDy=0;" edge="1" parent="1" source="gx-YbFX0xYSTEnHTqpCu-5" target="gx-YbFX0xYSTEnHTqpCu-2">
          <mxGeometry width="50" height="50" relative="1" as="geometry">
            <mxPoint x="357" y="266" as="sourcePoint" />
            <mxPoint x="407" y="216" as="targetPoint" />
          </mxGeometry>
        </mxCell>
        <mxCell id="gx-YbFX0xYSTEnHTqpCu-9" value="" style="endArrow=classic;html=1;rounded=0;entryX=0.5;entryY=0;entryDx=0;entryDy=0;" edge="1" parent="1" source="gx-YbFX0xYSTEnHTqpCu-1" target="gx-YbFX0xYSTEnHTqpCu-3">
          <mxGeometry width="50" height="50" relative="1" as="geometry">
            <mxPoint x="357" y="245" as="sourcePoint" />
            <mxPoint x="407" y="195" as="targetPoint" />
          </mxGeometry>
        </mxCell>
        <mxCell id="gx-YbFX0xYSTEnHTqpCu-10" value="" style="endArrow=classic;html=1;rounded=0;exitX=0.5;exitY=1;exitDx=0;exitDy=0;entryX=0.5;entryY=0;entryDx=0;entryDy=0;" edge="1" parent="1" source="gx-YbFX0xYSTEnHTqpCu-3" target="gx-YbFX0xYSTEnHTqpCu-4">
          <mxGeometry width="50" height="50" relative="1" as="geometry">
            <mxPoint x="357" y="245" as="sourcePoint" />
            <mxPoint x="407" y="195" as="targetPoint" />
          </mxGeometry>
        </mxCell>
        <mxCell id="gx-YbFX0xYSTEnHTqpCu-11" value="" style="endArrow=classic;html=1;rounded=0;entryX=1;entryY=1;entryDx=0;entryDy=0;exitX=0.5;exitY=0;exitDx=0;exitDy=0;" edge="1" parent="1" source="gx-YbFX0xYSTEnHTqpCu-2" target="gx-YbFX0xYSTEnHTqpCu-1">
          <mxGeometry width="50" height="50" relative="1" as="geometry">
            <mxPoint x="357" y="245" as="sourcePoint" />
            <mxPoint x="407" y="195" as="targetPoint" />
          </mxGeometry>
        </mxCell>
        <mxCell id="gx-YbFX0xYSTEnHTqpCu-12" value="" style="endArrow=classic;html=1;rounded=0;exitX=1;exitY=0.5;exitDx=0;exitDy=0;" edge="1" parent="1" source="gx-YbFX0xYSTEnHTqpCu-4" target="gx-YbFX0xYSTEnHTqpCu-5">
          <mxGeometry width="50" height="50" relative="1" as="geometry">
            <mxPoint x="357" y="245" as="sourcePoint" />
            <mxPoint x="407" y="195" as="targetPoint" />
          </mxGeometry>
        </mxCell>
        <mxCell id="gx-YbFX0xYSTEnHTqpCu-13" value="" style="endArrow=classic;html=1;rounded=0;exitX=0;exitY=0.5;exitDx=0;exitDy=0;" edge="1" parent="1" source="gx-YbFX0xYSTEnHTqpCu-7">
          <mxGeometry width="50" height="50" relative="1" as="geometry">
            <mxPoint x="357" y="245" as="sourcePoint" />
            <mxPoint x="316" y="402" as="targetPoint" />
          </mxGeometry>
        </mxCell>
        <mxCell id="gx-YbFX0xYSTEnHTqpCu-14" value="" style="endArrow=classic;html=1;rounded=0;entryX=0.5;entryY=1;entryDx=0;entryDy=0;exitX=0.5;exitY=0;exitDx=0;exitDy=0;" edge="1" parent="1" source="gx-YbFX0xYSTEnHTqpCu-6" target="gx-YbFX0xYSTEnHTqpCu-4">
          <mxGeometry width="50" height="50" relative="1" as="geometry">
            <mxPoint x="357" y="415" as="sourcePoint" />
            <mxPoint x="407" y="365" as="targetPoint" />
          </mxGeometry>
        </mxCell>
      </root>
    </mxGraphModel>
  </diagram>
</mxfile>
